<svg width="800" height="520" viewBox="0 0 800 520" fill="none" xmlns="http://www.w3.org/2000/svg" role="img" aria-label="Commercial building placeholder">
  <rect width="800" height="520" rx="24" fill="#F7F9FC"/>

  <!-- Sky -->
  <rect x="0" y="0" width="800" height="248" fill="#E8F0FA"/>
  <circle cx="170" cy="106" r="44" fill="#F3E1C7"/>
  <path d="M0 214C98 206 185 194 272 190C382 185 497 194 602 210C678 221 738 225 800 220V0H0V214Z" fill="#DCE7F2"/>

  <!-- Ground -->
  <rect x="0" y="398" width="800" height="122" fill="#E7E3DB"/>
  <rect x="0" y="386" width="800" height="14" fill="#D6CDC1"/>

  <!-- Rear building -->
  <rect x="190" y="176" width="118" height="210" rx="10" fill="#C6D2DE"/>
  <rect x="210" y="202" width="24" height="18" rx="4" fill="#DCE6EF"/>
  <rect x="242" y="202" width="24" height="18" rx="4" fill="#DCE6EF"/>
  <rect x="274" y="202" width="24" height="18" rx="4" fill="#DCE6EF"/>
  <rect x="210" y="232" width="24" height="18" rx="4" fill="#DCE6EF"/>
  <rect x="242" y="232" width="24" height="18" rx="4" fill="#DCE6EF"/>
  <rect x="274" y="232" width="24" height="18" rx="4" fill="#DCE6EF"/>
  <rect x="210" y="262" width="24" height="18" rx="4" fill="#DCE6EF"/>
  <rect x="242" y="262" width="24" height="18" rx="4" fill="#DCE6EF"/>
  <rect x="274" y="262" width="24" height="18" rx="4" fill="#DCE6EF"/>

  <!-- Main building -->
  <rect x="288" y="144" width="332" height="242" rx="12" fill="#D7E0E9"/>
  <rect x="494" y="144" width="126" height="242" rx="12" fill="#A5B6C8"/>

  <!-- Main building windows left -->
  <rect x="318" y="176" width="48" height="22" rx="4" fill="#BCC9D7"/>
  <rect x="378" y="176" width="48" height="22" rx="4" fill="#BCC9D7"/>
  <rect x="438" y="176" width="48" height="22" rx="4" fill="#BCC9D7"/>

  <rect x="318" y="210" width="48" height="22" rx="4" fill="#BCC9D7"/>
  <rect x="378" y="210" width="48" height="22" rx="4" fill="#BCC9D7"/>
  <rect x="438" y="210" width="48" height="22" rx="4" fill="#BCC9D7"/>

  <rect x="318" y="244" width="48" height="22" rx="4" fill="#BCC9D7"/>
  <rect x="378" y="244" width="48" height="22" rx="4" fill="#BCC9D7"/>
  <rect x="438" y="244" width="48" height="22" rx="4" fill="#BCC9D7"/>

  <rect x="318" y="278" width="48" height="22" rx="4" fill="#BCC9D7"/>
  <rect x="378" y="278" width="48" height="22" rx="4" fill="#BCC9D7"/>
  <rect x="438" y="278" width="48" height="22" rx="4" fill="#BCC9D7"/>

  <!-- Main building windows right -->
  <rect x="522" y="178" width="68" height="20" rx="4" fill="#C7D2DE"/>
  <rect x="522" y="210" width="68" height="20" rx="4" fill="#C7D2DE"/>
  <rect x="522" y="242" width="68" height="20" rx="4" fill="#C7D2DE"/>
  <rect x="522" y="274" width="68" height="20" rx="4" fill="#C7D2DE"/>

  <!-- Entry -->
  <rect x="430" y="306" width="70" height="80" rx="6" fill="#CBBDA9"/>
  <rect x="442" y="320" width="46" height="66" rx="4" fill="#BDA98F"/>

  <!-- Foreground blocks -->
  <rect x="106" y="344" width="86" height="42" rx="10" fill="#D7C7B5"/>
  <rect x="640" y="348" width="56" height="38" rx="10" fill="#D4DCE6"/>

  <!-- Trees -->
  <rect x="140" y="334" width="14" height="52" rx="7" fill="#9DAD98"/>
  <circle cx="147" cy="320" r="22" fill="#BAC8B3"/>

  <rect x="674" y="340" width="12" height="46" rx="6" fill="#9DAD98"/>
  <circle cx="680" cy="328" r="18" fill="#B7C6B0"/>

  <!-- Ground line -->
  <rect x="96" y="392" width="608" height="6" rx="3" fill="#C7B9A6"/>
</svg>