<svg width="800" height="520" viewBox="0 0 800 520" fill="none" xmlns="http://www.w3.org/2000/svg" role="img" aria-label="Commercial building placeholder">
  <rect width="800" height="520" rx="24" fill="#F6F8FB"/>

  <rect x="0" y="0" width="800" height="250" fill="#EAF2FF"/>
  <circle cx="640" cy="112" r="54" fill="#F4DFC2"/>

  <rect x="0" y="396" width="800" height="124" fill="#E8DED0"/>
  <rect x="0" y="384" width="800" height="16" fill="#D7C7B3"/>

  <rect x="196" y="132" width="408" height="252" rx="10" fill="#D7DEE8"/>
  <rect x="468" y="132" width="136" height="252" rx="10" fill="#A8B7C8"/>

  <rect x="224" y="160" width="58" height="24" rx="4" fill="#B8C6D5"/>
  <rect x="296" y="160" width="58" height="24" rx="4" fill="#B8C6D5"/>
  <rect x="368" y="160" width="58" height="24" rx="4" fill="#B8C6D5"/>
  <rect x="224" y="196" width="58" height="24" rx="4" fill="#B8C6D5"/>
  <rect x="296" y="196" width="58" height="24" rx="4" fill="#B8C6D5"/>
  <rect x="368" y="196" width="58" height="24" rx="4" fill="#B8C6D5"/>
  <rect x="224" y="232" width="58" height="24" rx="4" fill="#B8C6D5"/>
  <rect x="296" y="232" width="58" height="24" rx="4" fill="#B8C6D5"/>
  <rect x="368" y="232" width="58" height="24" rx="4" fill="#B8C6D5"/>
  <rect x="224" y="268" width="58" height="24" rx="4" fill="#B8C6D5"/>
  <rect x="296" y="268" width="58" height="24" rx="4" fill="#B8C6D5"/>
  <rect x="368" y="268" width="58" height="24" rx="4" fill="#B8C6D5"/>

  <rect x="500" y="160" width="72" height="22" rx="4" fill="#C5D0DB"/>
  <rect x="500" y="194" width="72" height="22" rx="4" fill="#C5D0DB"/>
  <rect x="500" y="228" width="72" height="22" rx="4" fill="#C5D0DB"/>
  <rect x="500" y="262" width="72" height="22" rx="4" fill="#C5D0DB"/>

  <rect x="360" y="306" width="80" height="78" rx="6" fill="#C9B8A1"/>
  <rect x="372" y="318" width="56" height="66" rx="4" fill="#BBA58B"/>

  <rect x="146" y="330" width="34" height="54" rx="8" fill="#9FB09B"/>
  <circle cx="163" cy="314" r="24" fill="#B8C7B1"/>

  <rect x="624" y="336" width="28" height="48" rx="8" fill="#9FB09B"/>
  <circle cx="638" cy="322" r="21" fill="#BAC9B4"/>

  <rect x="96" y="392" width="608" height="6" rx="3" fill="#C9B79F"/>
</svg>