<svg width="800" height="520" viewBox="0 0 800 520" fill="none" xmlns="http://www.w3.org/2000/svg" role="img" aria-label="Commercial building placeholder">
  <rect width="800" height="520" rx="24" fill="#F7F9FB"/>

  <rect x="0" y="0" width="800" height="246" fill="#E4F0FF"/>
  <path d="M0 214C85 210 156 196 236 188C332 178 427 184 522 202C608 218 700 226 800 214V0H0V214Z" fill="#EDF5FF"/>

  <rect x="0" y="406" width="800" height="114" fill="#E6E0D7"/>
  <rect x="0" y="392" width="800" height="16" fill="#D3C8BA"/>

  <rect x="136" y="254" width="530" height="122" rx="12" fill="#C5D1DD"/>
  <rect x="136" y="222" width="456" height="48" rx="10" fill="#D9E1EA"/>
  <rect x="502" y="222" width="90" height="154" rx="10" fill="#ABBACA"/>

  <rect x="168" y="280" width="84" height="26" rx="5" fill="#DDE6EE"/>
  <rect x="264" y="280" width="84" height="26" rx="5" fill="#DDE6EE"/>
  <rect x="360" y="280" width="84" height="26" rx="5" fill="#DDE6EE"/>

  <rect x="168" y="318" width="84" height="26" rx="5" fill="#DDE6EE"/>
  <rect x="264" y="318" width="84" height="26" rx="5" fill="#DDE6EE"/>
  <rect x="360" y="318" width="84" height="26" rx="5" fill="#DDE6EE"/>

  <rect x="530" y="254" width="34" height="88" rx="5" fill="#C4D0DB"/>

  <rect x="96" y="360" width="608" height="34" rx="8" fill="#D8D1C6"/>

  <rect x="100" y="366" width="600" height="10" rx="5" fill="#C5B8A7"/>

  <rect x="170" y="352" width="16" height="40" rx="8" fill="#95A88D"/>
  <circle cx="178" cy="338" r="24" fill="#B8C8B0"/>

  <rect x="616" y="356" width="14" height="36" rx="7" fill="#95A88D"/>
  <circle cx="623" cy="344" r="20" fill="#B6C6AE"/>

  <rect x="720" y="286" width="10" height="106" rx="5" fill="#B8C2CD"/>
  <rect x="723" y="290" width="4" height="34" rx="2" fill="#DCE6EF"/>

  <rect x="92" y="398" width="616" height="6" rx="3" fill="#C4B5A1"/>
</svg>