<svg width="1600" height="1000" viewBox="0 0 1600 1000" fill="none" xmlns="http://www.w3.org/2000/svg">
  <rect width="1600" height="1000" rx="28" fill="#F8FAFC"/>
  <rect x="24" y="24" width="1552" height="952" rx="20" stroke="#E2E8F0" stroke-width="2"/>

  <!-- soft grid -->
  <g opacity="0.5">
    <path d="M180 140V860" stroke="#E2E8F0" stroke-width="2"/>
    <path d="M360 100V900" stroke="#E2E8F0" stroke-width="2"/>
    <path d="M560 120V880" stroke="#E2E8F0" stroke-width="2"/>
    <path d="M760 90V910" stroke="#E2E8F0" stroke-width="2"/>
    <path d="M980 130V870" stroke="#E2E8F0" stroke-width="2"/>
    <path d="M1180 110V890" stroke="#E2E8F0" stroke-width="2"/>
    <path d="M1380 140V860" stroke="#E2E8F0" stroke-width="2"/>

    <path d="M120 220H1480" stroke="#E2E8F0" stroke-width="2"/>
    <path d="M90 380H1510" stroke="#E2E8F0" stroke-width="2"/>
    <path d="M120 540H1480" stroke="#E2E8F0" stroke-width="2"/>
    <path d="M100 700H1500" stroke="#E2E8F0" stroke-width="2"/>
  </g>

  <!-- map curves -->
  <g opacity="0.65">
    <path d="M120 760C300 690 360 660 500 700C670 748 730 620 880 610C1050 598 1150 700 1480 620" stroke="#CBD5E1" stroke-width="10" stroke-linecap="round"/>
    <path d="M180 290C360 360 450 260 610 280C770 300 880 390 1040 350C1180 315 1280 245 1430 300" stroke="#CBD5E1" stroke-width="8" stroke-linecap="round"/>
  </g>

  <!-- pin -->
  <g transform="translate(800 420)">
    <path d="M0 -110C-55 -110 -100 -65 -100 -10C-100 68 0 178 0 178C0 178 100 68 100 -10C100 -65 55 -110 0 -110Z" fill="#2563EB"/>
    <circle cx="0" cy="-10" r="34" fill="#F8FAFC"/>
  </g>

  <!-- title block -->
  <rect x="72" y="804" width="620" height="112" rx="22" fill="white"/>
  <rect x="72" y="804" width="620" height="112" rx="22" stroke="#E2E8F0" stroke-width="2"/>

  <text x="108" y="856" fill="#0F172A" font-family="Arial, Helvetica, sans-serif" font-size="46" font-weight="700">
    City, ST
  </text>

  <text x="108" y="892" fill="#64748B" font-family="Arial, Helvetica, sans-serif" font-size="24">
    Commercial Real Estate
  </text>

  <text x="1480" y="900" text-anchor="end" fill="#94A3B8" font-family="Arial, Helvetica, sans-serif" font-size="22" font-weight="700">
    ROFO
  </text>
</svg>